# xmcd
#
# Track frame offsets: 
#        150
#        15490
#        30265
#        48621
#        63729
#        82609
#        99141
#        115045
#        128672
#        160035
#        180065
#        204473
#
# Disc length: 2926 seconds
#
# Revision: 0
# Processed by: cddbd v1.5.1PL0 Copyright (c) Steve Scherf et al.
# Submitted via: ExactAudioCopy v0.95a5
#
DISCID=7c0b6c0c
DTITLE=In Step - Pure Soul
DYEAR=1999
DGENRE=Blues
TTITLE0=Pure Soul
TTITLE1=Hindsight
TTITLE2=This Guitar's Seein' The Blues
TTITLE3=Who's Next?
TTITLE4=Sittin' On The Dock Of The Bay
TTITLE5=Wind Cries Mary
TTITLE6=What Goes Around Comes Around
TTITLE7=Siempre Mi Corazon
TTITLE8=Laughin' With The Sinners (Cryin' With The Saints)
TTITLE9=Shake That Thang
TTITLE10=Wanted Dead Or Alive
TTITLE11=Pure Soul (The Reprise)
EXTD=
EXTT0=
EXTT1=
EXTT2=
EXTT3=
EXTT4=
EXTT5=
EXTT6=
EXTT7=
EXTT8=
EXTT9=
EXTT10=
EXTT11=
PLAYORDER=
